<svg width="39" height="39" viewBox="0 0 39 39" fill="none" xmlns="http://www.w3.org/2000/svg">
<path d="M8.99209 33.4928C10.0086 34.3303 11.6323 34.9682 14.128 34.5684C14.1307 34.9194 14.1334 35.2459 14.1358 35.5437C14.1424 36.3646 14.1473 36.9669 14.1473 37.2625C14.1473 37.4208 14.0923 37.5514 14.0103 37.6261C13.9448 37.6857 13.7917 37.7739 13.443 37.7164C5.92137 35.2014 0.5 28.1378 0.5 19.8071C0.5 9.38839 8.9907 0.924072 19.478 0.924072C29.965 0.924072 38.4559 9.38819 38.4559 19.819C38.4559 28.1388 33.0452 35.2028 25.523 37.7171C25.1566 37.781 25.0029 37.6909 24.9412 37.6352C24.8634 37.5649 24.8086 37.4375 24.8086 37.2744C24.8086 37.0627 24.8112 36.6931 24.8147 36.1972C24.8165 35.9459 24.8185 35.6622 24.8205 35.3501C24.8265 34.4244 24.8325 33.2542 24.8325 31.9557C24.8325 30.5783 24.4859 29.4991 23.9853 28.7371C25.9007 28.4426 27.8541 27.861 29.4008 26.5736C31.2229 25.0569 32.4013 22.6302 32.4013 18.7957C32.4013 16.6656 31.6798 14.8978 30.4773 13.4889C30.7543 12.6572 31.1576 10.737 30.1775 8.28221L30.0901 8.06315L29.8654 7.99135L29.7132 8.46761C29.8654 7.99135 29.8649 7.99119 29.8644 7.99104L29.8634 7.99072L29.8613 7.99005L29.8565 7.9886L29.8452 7.98527C29.8368 7.98288 29.8267 7.98016 29.815 7.97723C29.7915 7.97137 29.7614 7.96467 29.7245 7.958C29.6507 7.94466 29.5502 7.93153 29.4224 7.92558C29.1663 7.91366 28.8031 7.93062 28.3269 8.03027C27.4072 8.22269 26.0703 8.72241 24.2672 9.91308C22.7305 9.51185 21.0931 9.3119 19.4816 9.30028L19.4816 9.30023L19.4744 9.30028C17.8513 9.3119 16.2243 9.51189 14.6888 9.91307C12.8856 8.7224 11.5487 8.22269 10.6291 8.03027C10.1528 7.93062 9.7896 7.91366 9.53358 7.92558C9.40573 7.93153 9.30526 7.94466 9.23146 7.958C9.19458 7.96467 9.16445 7.97137 9.14098 7.97723C9.12924 7.98016 9.11918 7.98288 9.11077 7.98527L9.09942 7.9886L9.09468 7.99005L9.09254 7.99072L9.09153 7.99104C9.09104 7.99119 9.09055 7.99135 9.24277 8.46761L9.09055 7.99135L8.86588 8.06315L8.77841 8.28221C7.79888 10.7355 8.20113 12.6549 8.47817 13.4874C7.26429 14.8969 6.54268 16.6655 6.54268 18.7957C6.54268 22.6183 7.71806 25.0472 9.53439 26.5695C11.0799 27.8648 13.0326 28.454 14.9476 28.7501C14.6294 29.2432 14.3756 29.8659 14.235 30.6145C13.7031 30.8242 12.9321 31.0365 12.1265 30.9653C11.2226 30.8855 10.2311 30.4474 9.44857 29.1117C9.44809 29.1109 9.44761 29.1101 9.44713 29.1093L9.44569 29.1067L9.43333 29.0856C9.42299 29.0682 9.40846 29.0442 9.38975 29.0146C9.35237 28.9555 9.29812 28.8734 9.22718 28.7757C9.08577 28.581 8.87552 28.3206 8.59748 28.0546C8.04498 27.526 7.1939 26.947 6.06287 26.8641L6.04775 26.863L6.03259 26.8628L6.02633 27.3628C6.03259 26.8628 6.03243 26.8628 6.03226 26.8628L6.03189 26.8628L6.03102 26.8628L6.02874 26.8628L6.02211 26.8628L6.001 26.8628C5.98363 26.863 5.95969 26.8634 5.93063 26.8644C5.87295 26.8664 5.79281 26.8709 5.70231 26.8808C5.54121 26.8986 5.27144 26.9406 5.05007 27.0663C4.93415 27.1321 4.78452 27.2473 4.70045 27.44C4.60945 27.6486 4.63151 27.8632 4.70837 28.0447C4.8409 28.3576 5.16754 28.6513 5.6139 28.9544L5.64734 28.9771L5.68036 28.9925C5.68072 28.9926 5.68117 28.9929 5.6817 28.9931C5.68558 28.9951 5.69398 28.9995 5.7065 29.0066C5.73154 29.0206 5.77304 29.0453 5.82788 29.0825C5.93749 29.1568 6.10067 29.2815 6.29242 29.4723C6.67285 29.8508 7.17258 30.4967 7.5883 31.542C7.59179 31.5525 7.59644 31.5662 7.60235 31.5827C7.61484 31.6177 7.63295 31.6657 7.65751 31.7246C7.70658 31.8421 7.7817 32.0036 7.88958 32.1912C8.105 32.5658 8.45421 33.0497 8.99209 33.4928ZM5.6793 28.9919C5.67918 28.9919 5.67919 28.9919 5.67933 28.992L5.6793 28.9919Z" fill="#191717" stroke="white"/>
</svg>
