<svg width="246" height="221" viewBox="0 0 246 221" fill="none" xmlns="http://www.w3.org/2000/svg">
<g clip-path="url(#clip0_1_10)">
<path d="M62.2652 85.1148L62.2448 75.1148L132.063 74.9725L132.083 84.9725L102.811 85.0321L102.98 168.123L91.7072 168.146L91.5379 85.0551L62.2652 85.1148Z" fill="white"/>
<path d="M62.2652 85.1148L61.2652 85.1168L61.2672 86.1168L62.2672 86.1148L62.2652 85.1148ZM62.2448 75.1148L62.2428 74.1148L61.2428 74.1168L61.2448 75.1168L62.2448 75.1148ZM132.063 74.9725L133.063 74.9704L133.061 73.9704L132.061 73.9725L132.063 74.9725ZM132.083 84.9725L132.085 85.9725L133.085 85.9704L133.083 84.9704L132.083 84.9725ZM102.811 85.0321L102.809 84.0321L101.809 84.0342L101.811 85.0342L102.811 85.0321ZM102.98 168.123L102.982 169.123L103.982 169.121L103.98 168.121L102.98 168.123ZM91.7072 168.146L90.7072 168.148L90.7093 169.148L91.7093 169.146L91.7072 168.146ZM91.5379 85.0551L92.5379 85.0531L92.5358 84.0531L91.5358 84.0551L91.5379 85.0551ZM63.2652 85.1127L63.2448 75.1128L61.2448 75.1168L61.2652 85.1168L63.2652 85.1127ZM62.2469 76.1148L132.065 75.9725L132.061 73.9725L62.2428 74.1148L62.2469 76.1148ZM131.063 74.9745L131.083 84.9745L133.083 84.9704L133.063 74.9704L131.063 74.9745ZM132.081 83.9725L102.809 84.0321L102.813 86.0321L132.085 85.9725L132.081 83.9725ZM101.811 85.0342L101.98 168.125L103.98 168.121L103.811 85.0301L101.811 85.0342ZM102.978 167.123L91.7052 167.146L91.7093 169.146L102.982 169.123L102.978 167.123ZM92.7072 168.144L92.5379 85.0531L90.5379 85.0572L90.7072 168.148L92.7072 168.144ZM91.5358 84.0551L62.2632 84.1148L62.2672 86.1148L91.5399 86.0551L91.5358 84.0551Z" fill="white"/>
<path d="M101.579 136.273L92.3481 128.893L177.179 77.5309L186.267 84.7975L154.831 178.851L145.601 171.471L172.81 92.8939L172.242 92.4397L101.579 136.273ZM127.695 110.597L164.901 140.345L158.656 148.155L121.45 118.407L127.695 110.597Z" fill="white"/>
<path d="M101.579 136.273L100.954 137.054L101.506 137.495L102.106 137.123L101.579 136.273ZM92.3481 128.893L91.8302 128.037L90.6048 128.779L91.7236 129.674L92.3481 128.893ZM177.179 77.5309L177.803 76.7498L177.258 76.3139L176.661 76.6754L177.179 77.5309ZM186.267 84.7975L187.216 85.1145L187.437 84.4524L186.892 84.0165L186.267 84.7975ZM154.831 178.851L154.207 179.632L155.326 180.527L155.78 179.168L154.831 178.851ZM145.601 171.471L144.656 171.144L144.425 171.811L144.976 172.252L145.601 171.471ZM172.81 92.8939L173.755 93.2211L173.986 92.5538L173.435 92.1128L172.81 92.8939ZM172.242 92.4397L172.867 91.6587L172.315 91.2177L171.715 91.5899L172.242 92.4397ZM127.695 110.597L128.32 109.816L127.539 109.191L126.914 109.972L127.695 110.597ZM164.901 140.345L165.682 140.969L166.307 140.188L165.526 139.563L164.901 140.345ZM158.656 148.155L158.032 148.936L158.813 149.56L159.437 148.779L158.656 148.155ZM121.45 118.407L120.669 117.783L120.045 118.564L120.826 119.188L121.45 118.407ZM102.203 135.492L92.9726 128.112L91.7236 129.674L100.954 137.054L102.203 135.492ZM92.8661 129.748L177.697 78.3863L176.661 76.6754L91.8302 128.037L92.8661 129.748ZM176.554 78.3119L185.643 85.5786L186.892 84.0165L177.803 76.7498L176.554 78.3119ZM185.319 84.4805L153.883 178.534L155.78 179.168L187.216 85.1145L185.319 84.4805ZM155.456 178.07L146.225 170.69L144.976 172.252L154.207 179.632L155.456 178.07ZM146.546 171.798L173.755 93.2211L171.865 92.5667L144.656 171.144L146.546 171.798ZM173.435 92.1128L172.867 91.6587L171.618 93.2208L172.186 93.6749L173.435 92.1128ZM171.715 91.5899L101.051 135.423L102.106 137.123L172.769 93.2895L171.715 91.5899ZM127.071 111.378L164.277 141.126L165.526 139.563L128.32 109.816L127.071 111.378ZM164.12 139.72L157.875 147.53L159.437 148.779L165.682 140.969L164.12 139.72ZM159.281 147.374L122.075 117.626L120.826 119.188L158.032 148.936L159.281 147.374ZM122.231 119.031L128.476 111.221L126.914 109.972L120.669 117.783L122.231 119.031Z" fill="white"/>
<path d="M125.898 15C125.898 15 62.2253 49.6783 28.8982 41C13.9471 162.891 41.109 196.517 125.898 221C194.38 193.172 221.589 164.679 206.898 41C160.889 37.9311 125.898 15 125.898 15Z" stroke="white" stroke-width="4"/>
</g>
<defs>
<clipPath id="clip0_1_10">
<rect width="246" height="221" fill="white"/>
</clipPath>
</defs>
</svg>
